Coordinates
version=1
nRows=20
nColumns=34
inDegrees=yes

Units are S.I. units (second, meters, Newtons, ...)
If the header above contains a line with 'inDegrees', this indicates whether rotational values are in degrees (yes) or radians (no).

endheader
time	pelvis_tilt	pelvis_list	pelvis_rotation	pelvis_tx	pelvis_ty	pelvis_tz	hip_flexion_r	hip_adduction_r	hip_rotation_r	knee_angle_r	ankle_angle_r	subtalar_angle_r	mtp_angle_r	hip_flexion_l	hip_adduction_l	hip_rotation_l	knee_angle_l	ankle_angle_l	subtalar_angle_l	mtp_angle_l	lumbar_extension	lumbar_bending	lumbar_rotation	arm_flex_r	arm_add_r	arm_rot_r	elbow_flex_r	pro_sup_r	arm_flex_l	arm_add_l	arm_rot_l	elbow_flex_l	pro_sup_l
      4.68333330	    -13.74229771	      2.91818303	     -7.37477532	     -2.33151513	      0.91361209	      0.66731942	     15.80615806	     -5.23797310	      0.62952925	      0.00000000	      3.66391378	      1.58301843	      0.00000000	      4.99706451	     -3.88039513	    -39.99999995	      0.00000000	     10.46004866	     20.49726680	      0.00000000	      2.35916861	     27.29494399	    -14.50068186	     -6.78934884	    -16.19231907	    -25.72154676	     35.90851413	     75.99796501	      0.31763226	    -12.13596555	     34.68806826	     36.17751974	     72.72810423
      4.70000000	    -13.73691344	      2.92043596	     -7.37342646	     -2.33140869	      0.91322481	      0.66718263	     15.80961413	     -5.23551068	      0.63115636	      0.00000000	      3.66387718	      1.58383936	      0.00000000	      4.99708109	     -3.87984379	    -39.99999995	      0.00000000	     10.46162381	     20.49733144	      0.00000000	      2.35887305	     27.29485667	    -14.50114698	     -6.79015501	    -16.19274532	    -25.72071702	     35.90922646	     75.99804568	      0.31755395	    -12.13620025	     34.68862970	     36.17785940	     72.72788121
      4.71666670	    -13.74274550	      2.91788704	     -7.36372436	     -2.33030142	      0.91325801	      0.66705775	     15.82234591	     -5.23732802	      0.64404993	      0.00000000	      3.66229922	      1.58921191	      0.00000000	      4.98441529	     -3.87480941	    -39.99999995	      0.00000000	     10.47363027	     20.49762701	      0.00000000	      2.35420938	     27.29188797	    -14.50633937	     -6.79854718	    -16.19928804	    -25.71620509	     35.91300593	     75.99852104	      0.31572127	    -12.13743062	     34.69255949	     36.18012293	     72.72647265
      4.73333330	    -13.98312410	      3.00220889	     -7.36358776	     -2.32844749	      0.91247881	      0.66707469	     16.06975349	     -5.30154452	      1.11836437	      0.00000000	      3.54493514	      1.17001561	      0.00000000	      5.18285734	     -3.80454415	    -39.99999995	      0.00000000	     11.10326698	     20.97162687	      0.00000000	      2.72090749	     27.31296961	    -14.41202567	     -7.79759463	    -16.80734720	    -23.84526660	     37.19365040	     76.14122987	      0.15395087	    -12.38566664	     35.90451019	     36.90760585	     72.13763670
      4.75000000	    -14.00223171	      3.00046136	     -7.35259348	     -2.32736218	      0.91257723	      0.66717826	     16.07045720	     -5.30021499	      1.11998527	      0.00000000	      3.54354796	      1.17000553	      0.00000000	      5.16234688	     -3.80425547	    -39.99999995	      0.00000000	     11.10341531	     20.96656617	      0.00000000	      2.71720312	     27.31112922	    -14.41437242	     -7.80282310	    -16.80824571	    -23.84477015	     37.18965967	     76.14063475	      0.14868302	    -12.38286819	     35.90742880	     36.90605838	     72.13587491
      4.76666670	    -13.98888659	      2.96667451	     -7.30910571	     -2.32721386	      0.91289769	      0.66721795	     16.00505289	     -5.27374249	      1.12188767	      0.00000000	      3.54006598	      1.14774149	      0.00000000	      5.10070683	     -3.83506872	    -39.99999995	      0.00000000	     11.12744400	     20.89914520	      0.00000000	      2.69595162	     27.30938881	    -14.46344744	     -7.98918039	    -16.86182434	    -23.85639308	     37.07044308	     76.12867963	     -0.04914635	    -12.30783259	     35.97203545	     36.86760492	     72.10944182
      4.78333330	    -13.99215072	      2.96789521	     -7.30762157	     -2.32854106	      0.91402503	      0.66734768	     16.00848875	     -5.26870575	      1.11958152	      0.00000000	      3.54227570	      1.14484038	      0.00000000	      5.08773775	     -3.83193613	    -39.99999995	      0.00000000	     11.12874683	     20.89725727	      0.00000000	      2.70449666	     27.31465916	    -14.46194539	     -7.99158832	    -16.86362461	    -23.85641873	     37.06459212	     76.12797283	     -0.05077981	    -12.30675146	     35.97376878	     36.86651032	     72.10761867
      4.80000000	    -13.97163085	      2.96567307	     -7.30206934	     -2.33108850	      0.91376237	      0.66751169	     16.02835193	     -5.26244035	      1.11624830	      0.00000000	      3.54639708	      1.14130313	      0.00000000	      5.08300162	     -3.83055572	    -39.99999995	      0.00000000	     11.13043789	     20.89548888	      0.00000000	      2.71038224	     27.31958923	    -14.46059365	     -7.99231541	    -16.86518011	    -23.85648216	     37.05741907	     76.12720122	     -0.04779459	    -12.30696033	     35.97495118	     36.86548660	     72.10563900
      4.81666670	    -14.10090884	      2.95650052	     -7.24899418	     -2.33550572	      0.91345728	      0.66748180	     16.35769743	     -5.22024687	      1.01356914	      0.00000000	      3.61580967	      1.05102765	      0.00000000	      5.35862915	     -3.86711377	    -39.99999995	      0.00000000	     11.13562287	     20.85649873	      0.00000000	      2.55534586	     27.33485912	    -14.29499992	     -7.63494125	    -16.76198610	    -23.81011118	     36.93711716	     76.11159783	      0.42321935	    -12.48141452	     35.94610840	     36.85367513	     72.04624673
      4.83333330	    -14.29822861	      3.03692561	     -7.27270355	     -2.34018829	      0.91376183	      0.66723639	     16.95822831	     -5.23224755	      0.93631908	      0.00000000	      3.60657774	      1.01318101	      0.00000000	      5.76973315	     -3.82752321	    -39.99999995	      0.00000000	     11.06755925	     20.83592558	      0.00000000	      2.22405826	     27.26884555	    -14.02397733	     -7.09057595	    -16.60222425	    -23.73917076	     36.83808992	     76.09850732	      0.93404462	    -12.65160743	     35.94200852	     36.84741344	     71.98586844
      4.85000000	    -15.11787679	      3.36417492	     -7.56194849	     -2.34257921	      0.91197521	      0.66734779	     18.42295836	     -5.29596795	      1.55785692	      0.00000000	      3.11073841	      0.51376830	      0.00000000	      6.85179839	     -3.65715996	    -39.99999995	      0.00000000	     10.65591974	     20.16841020	      0.00000000	      2.78130907	     26.90718821	    -13.39629612	     -6.14075466	    -16.65016214	    -23.30978239	     34.14350978	     75.76561870	      1.52905438	    -12.94287991	     37.60801724	     36.61981394	     70.94102292
      4.86666670	    -15.22967195	      3.51855559	     -7.57411305	     -2.34182942	      0.91227664	      0.66702265	     18.95849807	     -5.38598333	      1.35449775	      0.00000000	      3.08468778	      0.47382412	      0.00000000	      7.16058677	     -3.52456353	    -39.99999995	      0.00000000	     10.64654667	     20.15904119	      0.00000000	      2.41953535	     26.75117604	    -13.21143931	     -5.71023312	    -16.52137087	    -23.22807177	     34.26350325	     75.75847803	      1.84121595	    -13.07466464	     37.60898901	     36.61628735	     70.87750807
      4.88333330	    -15.35676756	      3.72344317	     -7.68340825	     -2.33991119	      0.91209073	      0.66699500	     19.41174466	     -5.51707000	      1.28635754	      0.00000000	      2.85233273	      0.59886125	      0.00000000	      7.40070680	     -3.34426249	    -39.99999995	      0.00000000	     10.56189937	     20.11863743	      0.00000000	      2.12133152	     26.60805271	    -13.00595091	     -5.49862423	    -16.49107220	    -23.17423897	     34.27068939	     75.74216214	      1.87741077	    -13.14058868	     37.66791335	     36.62038364	     70.79876509
      4.90000000	    -15.35606892	      3.77850165	     -7.75648250	     -2.33848682	      0.91239103	      0.66713197	     19.53135775	     -5.51696233	      1.25144626	      0.00000000	      2.81195952	      0.61473998	      0.00000000	      7.40501053	     -3.30476580	    -39.99999995	      0.00000000	     10.55156225	     20.10719962	      0.00000000	      2.06633837	     26.57780802	    -13.00995810	     -5.52515846	    -16.50220125	    -23.17329677	     34.24545912	     75.73748238	      1.86534147	    -13.12454000	     37.68272561	     36.62954335	     70.78369663
      4.91666670	    -15.44544420	      3.92224837	     -7.81316648	     -2.33823709	      0.91223953	      0.66737519	     19.69393094	     -5.64898222	      1.10906082	      0.00000000	      2.63141893	      0.67979733	      0.00000000	      7.51655523	     -3.15207994	    -39.99999995	      0.00000000	     10.55641276	     20.06678698	      0.00000000	      1.92000566	     26.49354880	    -12.80310758	     -5.51762992	    -16.53699940	    -23.17054387	     34.17859124	     75.72399841	      1.63018249	    -13.07952025	     37.74304479	     36.61536946	     70.74099787
      4.93333330	    -15.57237965	      4.13941467	     -7.93979947	     -2.33769913	      0.91156641	      0.66751980	     19.89639378	     -5.82420724	      0.97226120	      0.00000000	      2.29450588	      0.92979327	      0.00000000	      7.63057726	     -2.93987167	    -39.99999995	      0.00000000	     10.62724136	     19.89522644	      0.00000000	      2.01062897	     26.24414907	    -12.54170940	     -5.58743031	    -16.52321850	    -23.16264233	     33.97333975	     75.68488460	      1.59255276	    -13.07227871	     37.75943592	     36.69325596	     70.61814282
      4.95000000	    -15.61034623	      4.14906863	     -7.95229716	     -2.33620675	      0.91120827	      0.66741175	     19.87827039	     -5.82944056	      0.96718469	      0.00000000	      2.29533185	      0.92983533	      0.00000000	      7.62147839	     -2.93651703	    -39.99999995	      0.00000000	     10.62656548	     19.89267436	      0.00000000	      2.00741584	     26.24692910	    -12.54180779	     -5.59422244	    -16.52037309	    -23.16270632	     33.96736796	     75.68400580	      1.58986984	    -13.07286692	     37.76002254	     36.69372739	     70.61587625
      4.96666670	    -15.63249805	      4.24311518	     -8.05465325	     -2.33408203	      0.91063823	      0.66733395	     19.83745135	     -5.91199031	      0.81212005	      0.00000000	      2.31443932	      0.92515936	      0.00000000	      7.53019579	     -2.82985766	    -39.99999995	      0.00000000	     10.68823330	     19.80695601	      0.00000000	      2.09488978	     26.23491264	    -12.45432307	     -5.84595223	    -16.56204156	    -23.19411776	     33.81215775	     75.65930912	      1.21490605	    -12.98985691	     37.82305473	     36.68144294	     70.56706610
      4.98333330	    -15.67188529	      4.28171856	     -8.17224813	     -2.33392802	      0.91139263	      0.66730619	     19.82132955	     -5.92749525	      0.76552393	      0.00000000	      2.31447711	      0.93014368	      0.00000000	      7.48241129	     -2.79250470	    -39.99999995	      0.00000000	     10.71641391	     19.78517667	      0.00000000	      2.13833660	     26.24705430	    -12.47933104	     -5.92701904	    -16.57379210	    -23.20743266	     33.76320812	     75.64996678	      1.17647688	    -12.95765900	     37.82976684	     36.69261699	     70.55023270
      5.00000000	    -15.70659160	      4.31185447	     -8.25467391	     -2.33523842	      0.91132733	      0.66712945	     19.75484184	     -5.96278376	      0.68260814	      0.00000000	      2.24794804	      1.04309369	      0.00000000	      7.42301036	     -2.73794837	    -39.99999995	      0.00000000	     10.91206629	     19.62099507	      0.00000000	      2.35461915	     26.20579865	    -12.40954441	     -6.08531900	    -16.66227482	    -23.28142307	     33.59427292	     75.60242645	      0.96925163	    -12.82961497	     37.85000366	     36.70389805	     70.46790966
